<mxfile host="app.diagrams.net" modified="2023-07-24T02:21:28.600Z" agent="Mozilla/5.0 (X11; Linux x86_64; rv:109.0) Gecko/20100101 Firefox/115.0" etag="efjmh9mCBr2NJeX5P0Cv" version="21.6.5" type="github">
  <diagram id="C5RBs43oDa-KdzZeNtuy" name="Page-1">
    <mxGraphModel dx="880" dy="1611" grid="1" gridSize="10" guides="1" tooltips="1" connect="1" arrows="1" fold="1" page="1" pageScale="1" pageWidth="827" pageHeight="1169" math="0" shadow="0">
      <root>
        <mxCell id="WIyWlLk6GJQsqaUBKTNV-0" />
        <mxCell id="WIyWlLk6GJQsqaUBKTNV-1" parent="WIyWlLk6GJQsqaUBKTNV-0" />
        <mxCell id="Fa4yojuUbhwQrKzYHWR1-16" style="edgeStyle=orthogonalEdgeStyle;rounded=0;orthogonalLoop=1;jettySize=auto;html=1;exitX=0.5;exitY=1;exitDx=0;exitDy=0;entryX=0.5;entryY=0;entryDx=0;entryDy=0;" edge="1" parent="WIyWlLk6GJQsqaUBKTNV-1" source="Fa4yojuUbhwQrKzYHWR1-0" target="Fa4yojuUbhwQrKzYHWR1-1">
          <mxGeometry relative="1" as="geometry" />
        </mxCell>
        <mxCell id="Fa4yojuUbhwQrKzYHWR1-0" value="Start" style="rounded=1;whiteSpace=wrap;html=1;" vertex="1" parent="WIyWlLk6GJQsqaUBKTNV-1">
          <mxGeometry x="340" y="-1060" width="120" height="60" as="geometry" />
        </mxCell>
        <mxCell id="Fa4yojuUbhwQrKzYHWR1-13" style="edgeStyle=orthogonalEdgeStyle;rounded=0;orthogonalLoop=1;jettySize=auto;html=1;exitX=0.5;exitY=1;exitDx=0;exitDy=0;" edge="1" parent="WIyWlLk6GJQsqaUBKTNV-1" source="Fa4yojuUbhwQrKzYHWR1-1" target="Fa4yojuUbhwQrKzYHWR1-3">
          <mxGeometry relative="1" as="geometry" />
        </mxCell>
        <mxCell id="Fa4yojuUbhwQrKzYHWR1-1" value="input n" style="shape=parallelogram;perimeter=parallelogramPerimeter;whiteSpace=wrap;html=1;fixedSize=1;" vertex="1" parent="WIyWlLk6GJQsqaUBKTNV-1">
          <mxGeometry x="340" y="-943" width="120" height="60" as="geometry" />
        </mxCell>
        <mxCell id="Fa4yojuUbhwQrKzYHWR1-12" style="edgeStyle=orthogonalEdgeStyle;rounded=0;orthogonalLoop=1;jettySize=auto;html=1;exitX=0.5;exitY=1;exitDx=0;exitDy=0;entryX=0.5;entryY=0;entryDx=0;entryDy=0;" edge="1" parent="WIyWlLk6GJQsqaUBKTNV-1" source="Fa4yojuUbhwQrKzYHWR1-3" target="Fa4yojuUbhwQrKzYHWR1-4">
          <mxGeometry relative="1" as="geometry" />
        </mxCell>
        <mxCell id="Fa4yojuUbhwQrKzYHWR1-3" value="nCopy = int(n)" style="rounded=0;whiteSpace=wrap;html=1;" vertex="1" parent="WIyWlLk6GJQsqaUBKTNV-1">
          <mxGeometry x="340" y="-831" width="120" height="60" as="geometry" />
        </mxCell>
        <mxCell id="Fa4yojuUbhwQrKzYHWR1-11" style="edgeStyle=orthogonalEdgeStyle;rounded=0;orthogonalLoop=1;jettySize=auto;html=1;exitX=0.5;exitY=1;exitDx=0;exitDy=0;entryX=0.5;entryY=0;entryDx=0;entryDy=0;" edge="1" parent="WIyWlLk6GJQsqaUBKTNV-1" source="Fa4yojuUbhwQrKzYHWR1-4" target="Fa4yojuUbhwQrKzYHWR1-5">
          <mxGeometry relative="1" as="geometry" />
        </mxCell>
        <mxCell id="Fa4yojuUbhwQrKzYHWR1-24" style="edgeStyle=orthogonalEdgeStyle;rounded=0;orthogonalLoop=1;jettySize=auto;html=1;exitX=1;exitY=0.5;exitDx=0;exitDy=0;" edge="1" parent="WIyWlLk6GJQsqaUBKTNV-1" source="Fa4yojuUbhwQrKzYHWR1-4" target="Fa4yojuUbhwQrKzYHWR1-22">
          <mxGeometry relative="1" as="geometry" />
        </mxCell>
        <mxCell id="Fa4yojuUbhwQrKzYHWR1-4" value="nCopy &amp;gt; 0" style="rhombus;whiteSpace=wrap;html=1;" vertex="1" parent="WIyWlLk6GJQsqaUBKTNV-1">
          <mxGeometry x="350" y="-714" width="100" height="100" as="geometry" />
        </mxCell>
        <mxCell id="Fa4yojuUbhwQrKzYHWR1-9" style="edgeStyle=orthogonalEdgeStyle;rounded=0;orthogonalLoop=1;jettySize=auto;html=1;exitX=0.5;exitY=1;exitDx=0;exitDy=0;entryX=0.5;entryY=0;entryDx=0;entryDy=0;" edge="1" parent="WIyWlLk6GJQsqaUBKTNV-1" source="Fa4yojuUbhwQrKzYHWR1-5" target="Fa4yojuUbhwQrKzYHWR1-7">
          <mxGeometry relative="1" as="geometry" />
        </mxCell>
        <mxCell id="Fa4yojuUbhwQrKzYHWR1-5" value="print &quot;-&quot;" style="rounded=0;whiteSpace=wrap;html=1;" vertex="1" parent="WIyWlLk6GJQsqaUBKTNV-1">
          <mxGeometry x="340" y="-555" width="120" height="60" as="geometry" />
        </mxCell>
        <mxCell id="Fa4yojuUbhwQrKzYHWR1-21" style="edgeStyle=orthogonalEdgeStyle;rounded=0;orthogonalLoop=1;jettySize=auto;html=1;exitX=0.5;exitY=1;exitDx=0;exitDy=0;entryX=0;entryY=0.5;entryDx=0;entryDy=0;" edge="1" parent="WIyWlLk6GJQsqaUBKTNV-1" source="Fa4yojuUbhwQrKzYHWR1-7" target="Fa4yojuUbhwQrKzYHWR1-4">
          <mxGeometry relative="1" as="geometry">
            <Array as="points">
              <mxPoint x="400" y="-370" />
              <mxPoint x="280" y="-370" />
              <mxPoint x="280" y="-664" />
            </Array>
          </mxGeometry>
        </mxCell>
        <mxCell id="Fa4yojuUbhwQrKzYHWR1-7" value="nCopy = nCopy - 1" style="rounded=0;whiteSpace=wrap;html=1;" vertex="1" parent="WIyWlLk6GJQsqaUBKTNV-1">
          <mxGeometry x="340" y="-450" width="120" height="60" as="geometry" />
        </mxCell>
        <mxCell id="Fa4yojuUbhwQrKzYHWR1-25" style="edgeStyle=orthogonalEdgeStyle;rounded=0;orthogonalLoop=1;jettySize=auto;html=1;exitX=0.5;exitY=1;exitDx=0;exitDy=0;" edge="1" parent="WIyWlLk6GJQsqaUBKTNV-1" source="Fa4yojuUbhwQrKzYHWR1-22" target="Fa4yojuUbhwQrKzYHWR1-23">
          <mxGeometry relative="1" as="geometry" />
        </mxCell>
        <mxCell id="Fa4yojuUbhwQrKzYHWR1-22" value="print &quot;\n&quot;" style="rounded=0;whiteSpace=wrap;html=1;" vertex="1" parent="WIyWlLk6GJQsqaUBKTNV-1">
          <mxGeometry x="570" y="-694" width="120" height="60" as="geometry" />
        </mxCell>
        <mxCell id="Fa4yojuUbhwQrKzYHWR1-23" value="End" style="rounded=1;whiteSpace=wrap;html=1;" vertex="1" parent="WIyWlLk6GJQsqaUBKTNV-1">
          <mxGeometry x="570" y="-510" width="120" height="60" as="geometry" />
        </mxCell>
        <mxCell id="Fa4yojuUbhwQrKzYHWR1-27" style="edgeStyle=orthogonalEdgeStyle;rounded=0;orthogonalLoop=1;jettySize=auto;html=1;exitX=0;exitY=0.5;exitDx=0;exitDy=0;exitPerimeter=0;entryX=0;entryY=0;entryDx=0;entryDy=0;dashed=1;" edge="1" parent="WIyWlLk6GJQsqaUBKTNV-1" source="Fa4yojuUbhwQrKzYHWR1-26" target="Fa4yojuUbhwQrKzYHWR1-4">
          <mxGeometry relative="1" as="geometry" />
        </mxCell>
        <mxCell id="Fa4yojuUbhwQrKzYHWR1-26" value="" style="strokeWidth=1;html=1;shape=mxgraph.flowchart.annotation_2;align=left;labelPosition=right;pointerEvents=1;rotation=-180;dashed=1;" vertex="1" parent="WIyWlLk6GJQsqaUBKTNV-1">
          <mxGeometry x="200" y="-767" width="60" height="46" as="geometry" />
        </mxCell>
        <mxCell id="Fa4yojuUbhwQrKzYHWR1-29" style="edgeStyle=orthogonalEdgeStyle;rounded=0;orthogonalLoop=1;jettySize=auto;html=1;entryX=0;entryY=0.5;entryDx=0;entryDy=0;dashed=1;" edge="1" parent="WIyWlLk6GJQsqaUBKTNV-1" source="Fa4yojuUbhwQrKzYHWR1-28" target="Fa4yojuUbhwQrKzYHWR1-0">
          <mxGeometry relative="1" as="geometry" />
        </mxCell>
        <mxCell id="Fa4yojuUbhwQrKzYHWR1-28" value="" style="strokeWidth=1;html=1;shape=mxgraph.flowchart.annotation_2;align=left;labelPosition=right;pointerEvents=1;rotation=-180;dashed=1;" vertex="1" parent="WIyWlLk6GJQsqaUBKTNV-1">
          <mxGeometry x="230" y="-1110" width="60" height="50" as="geometry" />
        </mxCell>
        <mxCell id="Fa4yojuUbhwQrKzYHWR1-32" value="True" style="text;html=1;strokeColor=none;fillColor=none;align=center;verticalAlign=middle;whiteSpace=wrap;rounded=0;" vertex="1" parent="WIyWlLk6GJQsqaUBKTNV-1">
          <mxGeometry x="390" y="-602" width="60" height="30" as="geometry" />
        </mxCell>
        <mxCell id="Fa4yojuUbhwQrKzYHWR1-33" value="False" style="text;html=1;strokeColor=none;fillColor=none;align=center;verticalAlign=middle;whiteSpace=wrap;rounded=0;" vertex="1" parent="WIyWlLk6GJQsqaUBKTNV-1">
          <mxGeometry x="463" y="-690" width="60" height="30" as="geometry" />
        </mxCell>
        <mxCell id="Fa4yojuUbhwQrKzYHWR1-35" value="While Loop" style="text;html=1;strokeColor=none;fillColor=none;align=center;verticalAlign=middle;whiteSpace=wrap;rounded=0;" vertex="1" parent="WIyWlLk6GJQsqaUBKTNV-1">
          <mxGeometry x="130" y="-759" width="110" height="30" as="geometry" />
        </mxCell>
        <mxCell id="Fa4yojuUbhwQrKzYHWR1-36" value="&lt;div&gt;Function&amp;nbsp;&amp;nbsp; print_line ( n )&lt;br&gt;&lt;/div&gt;" style="text;html=1;strokeColor=none;fillColor=none;align=center;verticalAlign=middle;whiteSpace=wrap;rounded=0;" vertex="1" parent="WIyWlLk6GJQsqaUBKTNV-1">
          <mxGeometry x="110" y="-1099" width="150" height="30" as="geometry" />
        </mxCell>
      </root>
    </mxGraphModel>
  </diagram>
</mxfile>
